<svg xmlns="http://www.w3.org/2000/svg" viewBox="0 0 629.96 135.81"><defs><style>.cls-1{fill:#3c6bb3;}.cls-2{fill:#fff;}</style></defs><title>Asset 1</title><g id="Layer_2" data-name="Layer 2"><g id="Layer_1-2" data-name="Layer 1"><g id="sweetbot_logo" data-name="sweetbot logo"><polygon id="background" class="cls-1" points="0 0 0 135.81 494.15 135.81 629.96 0 0 0"/><g id="logotype"><path class="cls-2" d="M62.38,73.09a9.76,9.76,0,0,1-1.55,5.42,10.31,10.31,0,0,1-4.54,3.76,17,17,0,0,1-7.09,1.36,16,16,0,0,1-8.11-1.86A10.81,10.81,0,0,1,37.4,78.2,8.1,8.1,0,0,1,36,73.86a2.94,2.94,0,0,1,3-3,2.56,2.56,0,0,1,1.8.68,5.35,5.35,0,0,1,1.26,2,13.38,13.38,0,0,0,1.37,2.65A5.55,5.55,0,0,0,45.5,78a7.65,7.65,0,0,0,3.51.69,7.92,7.92,0,0,0,4.86-1.39,4.19,4.19,0,0,0,1.87-3.48,3.67,3.67,0,0,0-1-2.68,6.48,6.48,0,0,0-2.6-1.57q-1.6-.54-4.27-1.16a31.32,31.32,0,0,1-6-2A9.7,9.7,0,0,1,38,63.38a7.93,7.93,0,0,1-1.42-4.81,8.27,8.27,0,0,1,1.5-4.87,9.43,9.43,0,0,1,4.33-3.27,17.72,17.72,0,0,1,6.66-1.14A16.5,16.5,0,0,1,54.4,50a11.2,11.2,0,0,1,3.7,2,8.42,8.42,0,0,1,2.15,2.64,6.08,6.08,0,0,1,.68,2.7,3.18,3.18,0,0,1-.85,2.16,2.71,2.71,0,0,1-2.12,1,2.44,2.44,0,0,1-1.76-.58A7.78,7.78,0,0,1,54.91,58a8.59,8.59,0,0,0-2.18-2.93,6.36,6.36,0,0,0-4.08-1.05,7.06,7.06,0,0,0-4.2,1.14A3.33,3.33,0,0,0,42.85,58a2.79,2.79,0,0,0,.54,1.72,4.57,4.57,0,0,0,1.49,1.25,10.12,10.12,0,0,0,1.93.82q1,.29,3.22.86A50.58,50.58,0,0,1,55.12,64,15.45,15.45,0,0,1,59,66a7.92,7.92,0,0,1,2.49,2.87A9.18,9.18,0,0,1,62.38,73.09Z"/><path class="cls-2" d="M91.61,77.82,86.24,57.91,80.8,77.82q-.63,2.27-1,3.25a4.31,4.31,0,0,1-1.3,1.77,3.71,3.71,0,0,1-2.47.78A4.06,4.06,0,0,1,74,83.16a3.57,3.57,0,0,1-1.3-1.31,8.25,8.25,0,0,1-.82-2q-.32-1.17-.57-2.16L65.76,55.3a13.11,13.11,0,0,1-.5-3,2.92,2.92,0,0,1,.91-2.18,3.08,3.08,0,0,1,2.24-.88,2.54,2.54,0,0,1,2.47,1.18A13.32,13.32,0,0,1,72,53.88l4.35,19.39,4.87-18.15a29.07,29.07,0,0,1,1-3.17,4.57,4.57,0,0,1,1.4-1.88,4.08,4.08,0,0,1,2.65-.79,3.86,3.86,0,0,1,2.64.83,4.52,4.52,0,0,1,1.3,1.8q.36,1,1,3.22l4.92,18.15,4.35-19.39a23.07,23.07,0,0,1,.6-2.38A3.82,3.82,0,0,1,102,50a2.74,2.74,0,0,1,2-.68,3.12,3.12,0,0,1,2.23.87,2.89,2.89,0,0,1,.92,2.19,14.23,14.23,0,0,1-.5,3l-5.53,22.36q-.57,2.26-.94,3.32a4.43,4.43,0,0,1-1.27,1.85,3.69,3.69,0,0,1-2.53.79,3.74,3.74,0,0,1-2.47-.77,4.16,4.16,0,0,1-1.29-1.73Q92.27,80.16,91.61,77.82Z"/><path class="cls-2" d="M133.5,55H118.34v8.16h14a3.32,3.32,0,0,1,2.3.69,2.35,2.35,0,0,1,.76,1.82,2.44,2.44,0,0,1-.75,1.85,3.25,3.25,0,0,1-2.31.71h-14v9.45H134a3.43,3.43,0,0,1,2.39.74,2.53,2.53,0,0,1,.8,2,2.48,2.48,0,0,1-.8,1.91,3.43,3.43,0,0,1-2.39.74H115.74a3.52,3.52,0,0,1-4.12-4.12V54A5.6,5.6,0,0,1,112,51.6a2.67,2.67,0,0,1,1.35-1.34,5.68,5.68,0,0,1,2.34-.42H133.5a3.45,3.45,0,0,1,2.39.71,2.41,2.41,0,0,1,.78,1.87,2.44,2.44,0,0,1-.78,1.89A3.45,3.45,0,0,1,133.5,55Z"/><path class="cls-2" d="M164.44,55H149.29v8.16h14a3.32,3.32,0,0,1,2.3.69,2.35,2.35,0,0,1,.76,1.82,2.44,2.44,0,0,1-.75,1.85,3.25,3.25,0,0,1-2.31.71h-14v9.45H165a3.43,3.43,0,0,1,2.39.74,2.53,2.53,0,0,1,.8,2,2.48,2.48,0,0,1-.8,1.91,3.43,3.43,0,0,1-2.39.74H146.68a3.52,3.52,0,0,1-4.12-4.12V54A5.6,5.6,0,0,1,143,51.6a2.67,2.67,0,0,1,1.35-1.34,5.68,5.68,0,0,1,2.34-.42h17.76a3.45,3.45,0,0,1,2.39.71,2.41,2.41,0,0,1,.78,1.87,2.44,2.44,0,0,1-.78,1.89A3.45,3.45,0,0,1,164.44,55Z"/><path class="cls-2" d="M195.08,55.39h-7.34V79.52a4.44,4.44,0,0,1-.93,3.09,3.12,3.12,0,0,1-2.4,1,3.16,3.16,0,0,1-2.44-1,4.41,4.41,0,0,1-.94-3.08V55.39h-7.34a3.71,3.71,0,0,1-2.56-.76,2.57,2.57,0,0,1-.84-2,2.55,2.55,0,0,1,.87-2,3.78,3.78,0,0,1,2.53-.75h21.39a3.76,3.76,0,0,1,2.59.77,2.6,2.6,0,0,1,.85,2,2.54,2.54,0,0,1-.86,2A3.81,3.81,0,0,1,195.08,55.39Z"/><path class="cls-2" d="M216.69,83.06H206.54a4.2,4.2,0,0,1-3.14-1,4.42,4.42,0,0,1-.94-3.14V54a4.35,4.35,0,0,1,1-3.16,4.28,4.28,0,0,1,3.12-1H217.3a25.22,25.22,0,0,1,4.12.29,8.8,8.8,0,0,1,3.13,1.13A8.23,8.23,0,0,1,226.63,53,7.87,7.87,0,0,1,228,55.43a7.94,7.94,0,0,1,.48,2.75q0,5-5,7.3,6.55,2.08,6.55,8.11a9.11,9.11,0,0,1-1.43,5,8.57,8.57,0,0,1-3.85,3.3,13.67,13.67,0,0,1-3.49.89A35.39,35.39,0,0,1,216.69,83.06Zm-7.5-28.16v8.59h6.16a12.38,12.38,0,0,0,3.89-.48,3.71,3.71,0,0,0,2.1-1.81,4.08,4.08,0,0,0,.57-2.13,3.31,3.31,0,0,0-1.79-3.34,13.68,13.68,0,0,0-5.46-.83Zm7,13.41h-7V78h7.23q6.82,0,6.82-4.92a4,4,0,0,0-1.77-3.65A9.89,9.89,0,0,0,216.19,68.31Z"/><path class="cls-2" d="M250.49,49.28a17.74,17.74,0,0,1,8.87,2.1,13.59,13.59,0,0,1,5.61,6,20.31,20.31,0,0,1,1.9,9.07,22.21,22.21,0,0,1-1,7,15.14,15.14,0,0,1-3.13,5.46,13.66,13.66,0,0,1-5.12,3.54,18.51,18.51,0,0,1-7,1.22,18.3,18.3,0,0,1-7-1.26,13.83,13.83,0,0,1-5.14-3.54,15.16,15.16,0,0,1-3.11-5.51,22.2,22.2,0,0,1-1.05-7,21.47,21.47,0,0,1,1.1-7,15,15,0,0,1,3.18-5.44,13.77,13.77,0,0,1,5.08-3.43A18.29,18.29,0,0,1,250.49,49.28Zm9.56,17.08A15.59,15.59,0,0,0,258.87,60a8.8,8.8,0,0,0-3.36-4,9.25,9.25,0,0,0-5-1.37,9.1,9.1,0,0,0-3.73.76,8.18,8.18,0,0,0-2.94,2.21,10.54,10.54,0,0,0-1.95,3.7,16.73,16.73,0,0,0-.71,5.06,17.15,17.15,0,0,0,.71,5.12,10.5,10.5,0,0,0,2,3.79,8.45,8.45,0,0,0,3,2.25,9.45,9.45,0,0,0,8.45-.54,8.94,8.94,0,0,0,3.44-4A15.42,15.42,0,0,0,260.05,66.36Z"/><path class="cls-2" d="M292.43,55.39h-7.34V79.52a4.44,4.44,0,0,1-.93,3.09,3.12,3.12,0,0,1-2.4,1,3.16,3.16,0,0,1-2.44-1,4.41,4.41,0,0,1-.94-3.08V55.39H271a3.71,3.71,0,0,1-2.56-.76,2.57,2.57,0,0,1-.84-2,2.55,2.55,0,0,1,.87-2,3.78,3.78,0,0,1,2.53-.75h21.39a3.76,3.76,0,0,1,2.59.77,2.6,2.6,0,0,1,.85,2,2.54,2.54,0,0,1-.86,2A3.81,3.81,0,0,1,292.43,55.39Z"/><path class="cls-2" d="M297.73,83.62a3.53,3.53,0,0,1-2.42-.91,3.22,3.22,0,0,1-1-2.54,3.29,3.29,0,0,1,1-2.38,3.23,3.23,0,0,1,2.4-1,3.36,3.36,0,0,1,2.44,1,3.5,3.5,0,0,1,0,4.92A3.41,3.41,0,0,1,297.73,83.62Z"/><path class="cls-2" d="M312.75,49.84h8.77a23.68,23.68,0,0,1,5.87.63,10.79,10.79,0,0,1,4.44,2.38Q337,57.3,337,66.36a26.5,26.5,0,0,1-.52,5.46,16.11,16.11,0,0,1-1.61,4.45,13.83,13.83,0,0,1-2.79,3.54,11.56,11.56,0,0,1-2.92,1.93,13.24,13.24,0,0,1-3.41,1,25.82,25.82,0,0,1-4.11.3h-8.77a5.49,5.49,0,0,1-2.76-.56,2.58,2.58,0,0,1-1.21-1.56,9.91,9.91,0,0,1-.28-2.62V54a4.32,4.32,0,0,1,1-3.15A4.33,4.33,0,0,1,312.75,49.84Zm2.61,5.32V77.71h5.1q1.68,0,2.63-.09a8.23,8.23,0,0,0,2-.45,5.39,5.39,0,0,0,1.77-1q3.38-2.86,3.37-9.83,0-4.92-1.48-7.36A6.61,6.61,0,0,0,325,55.84a18.07,18.07,0,0,0-5.26-.67Z"/><path class="cls-2" d="M364.81,55H349.65v8.16h14a3.32,3.32,0,0,1,2.3.69,2.35,2.35,0,0,1,.76,1.82,2.44,2.44,0,0,1-.75,1.85,3.25,3.25,0,0,1-2.31.71h-14v9.45h15.68a3.43,3.43,0,0,1,2.39.74,2.53,2.53,0,0,1,.8,2,2.48,2.48,0,0,1-.8,1.91,3.43,3.43,0,0,1-2.39.74H347a3.52,3.52,0,0,1-4.12-4.12V54a5.6,5.6,0,0,1,.43-2.37,2.67,2.67,0,0,1,1.35-1.34,5.68,5.68,0,0,1,2.34-.42h17.76a3.45,3.45,0,0,1,2.39.71,2.41,2.41,0,0,1,.78,1.87,2.44,2.44,0,0,1-.78,1.89A3.45,3.45,0,0,1,364.81,55Z"/><path class="cls-2" d="M399.11,73.09a9.76,9.76,0,0,1-1.55,5.42A10.31,10.31,0,0,1,393,82.26a17,17,0,0,1-7.09,1.36,16,16,0,0,1-8.11-1.86,10.81,10.81,0,0,1-3.68-3.57,8.1,8.1,0,0,1-1.42-4.34,2.94,2.94,0,0,1,3-3,2.56,2.56,0,0,1,1.8.68,5.35,5.35,0,0,1,1.26,2,13.38,13.38,0,0,0,1.37,2.65A5.55,5.55,0,0,0,382.23,78a7.65,7.65,0,0,0,3.51.69,7.92,7.92,0,0,0,4.86-1.39,4.19,4.19,0,0,0,1.87-3.48,3.67,3.67,0,0,0-1-2.68,6.48,6.48,0,0,0-2.6-1.57q-1.6-.54-4.27-1.16a31.32,31.32,0,0,1-6-2,9.7,9.7,0,0,1-3.83-3.06,7.93,7.93,0,0,1-1.42-4.81,8.27,8.27,0,0,1,1.5-4.87,9.43,9.43,0,0,1,4.33-3.27,17.72,17.72,0,0,1,6.66-1.14,16.5,16.5,0,0,1,5.29.76,11.2,11.2,0,0,1,3.7,2A8.42,8.42,0,0,1,397,54.69a6.08,6.08,0,0,1,.68,2.7,3.18,3.18,0,0,1-.85,2.16,2.71,2.71,0,0,1-2.12,1,2.44,2.44,0,0,1-1.76-.58,7.78,7.78,0,0,1-1.3-1.89,8.59,8.59,0,0,0-2.18-2.93,6.36,6.36,0,0,0-4.08-1.05,7.06,7.06,0,0,0-4.2,1.14,3.33,3.33,0,0,0-1.6,2.75,2.79,2.79,0,0,0,.54,1.72,4.57,4.57,0,0,0,1.49,1.25,10.12,10.12,0,0,0,1.93.82q1,.29,3.22.86A50.58,50.58,0,0,1,391.85,64,15.45,15.45,0,0,1,395.72,66a7.92,7.92,0,0,1,2.49,2.87A9.18,9.18,0,0,1,399.11,73.09Z"/><path class="cls-2" d="M405.09,79.52V53.36A4.41,4.41,0,0,1,406,50.3a3.1,3.1,0,0,1,2.4-1,3.21,3.21,0,0,1,2.46,1,4.37,4.37,0,0,1,.94,3.07V79.52a4.41,4.41,0,0,1-.94,3.08,3.19,3.19,0,0,1-2.46,1,3.09,3.09,0,0,1-2.39-1A4.42,4.42,0,0,1,405.09,79.52Z"/><path class="cls-2" d="M449.68,69.55v6.37a6.71,6.71,0,0,1-.25,2,3.22,3.22,0,0,1-.92,1.37,8.54,8.54,0,0,1-1.71,1.18,27,27,0,0,1-5.8,2.38,23.45,23.45,0,0,1-6.07.75,19.76,19.76,0,0,1-7-1.18A14.66,14.66,0,0,1,422.58,79a15.1,15.1,0,0,1-3.41-5.44A20.32,20.32,0,0,1,418,66.45a20.85,20.85,0,0,1,1.15-7.09,14.56,14.56,0,0,1,3.4-5.46A14.92,14.92,0,0,1,428,50.47a21,21,0,0,1,7.3-1.19,18.1,18.1,0,0,1,5.94.89,13.06,13.06,0,0,1,4.19,2.25,10.06,10.06,0,0,1,2.42,2.88,5.85,5.85,0,0,1,.81,2.7,2.88,2.88,0,0,1-.94,2.16,3.15,3.15,0,0,1-2.25.89,3,3,0,0,1-1.39-.34,3.17,3.17,0,0,1-1.12-1,26.8,26.8,0,0,0-2.11-2.94,6.79,6.79,0,0,0-2.32-1.68,8.86,8.86,0,0,0-3.73-.68,10.3,10.3,0,0,0-4.17.8,8.61,8.61,0,0,0-3.14,2.33,10.5,10.5,0,0,0-2,3.75,16.47,16.47,0,0,0-.69,4.92q0,5.84,2.68,9A9.31,9.31,0,0,0,435,78.41a15.28,15.28,0,0,0,4.38-.61,22.2,22.2,0,0,0,4.16-1.74V70.66H438.3a5.73,5.73,0,0,1-2.84-.57,2.05,2.05,0,0,1-1-1.93,2.36,2.36,0,0,1,.8-1.83,3.14,3.14,0,0,1,2.19-.73h7.64a9.73,9.73,0,0,1,2.38.25A2.69,2.69,0,0,1,449.08,67,4.53,4.53,0,0,1,449.68,69.55Z"/><path class="cls-2" d="M464.86,53.31l12.94,19.57V53.13a4.34,4.34,0,0,1,.83-2.89,2.79,2.79,0,0,1,2.23-1,2.88,2.88,0,0,1,2.29,1,4.3,4.3,0,0,1,.84,2.89V79.25q0,4.37-3.62,4.37a4.83,4.83,0,0,1-1.63-.26,4.15,4.15,0,0,1-1.36-.83,8,8,0,0,1-1.18-1.32q-.54-.76-1.09-1.55L462.48,60.31V79.77a4.16,4.16,0,0,1-.88,2.88,2.92,2.92,0,0,1-2.26,1,2.89,2.89,0,0,1-2.29-1,4.23,4.23,0,0,1-.86-2.87V54.15a7.24,7.24,0,0,1,.36-2.56A3.64,3.64,0,0,1,458,49.92a3.88,3.88,0,0,1,2.15-.65,3.52,3.52,0,0,1,2.68,1.09,8.22,8.22,0,0,1,1,1.29Z"/></g></g></g></g></svg>